<svg width="600" height="300" xmlns="http://www.w3.org/2000/svg"><path d="M 300 140 L 300.0 20.0 A 120 120 0 0 1 415.41907718073827 172.83955880864997 Z" fill="#1f77b4" stroke="white" stroke-width="2" /><text x="367.0334470915401" y="89.37869054414247" text-anchor="middle" dominant-baseline="middle" font-family="Arial, sans-serif" font-size="12" font-weight="bold" fill="white">२९.४%</text><path d="M 300 140 L 415.41907718073827 172.83955880864997 A 120 120 0 0 1 184.5809228192617 172.8395588086499 Z" fill="#ff7f0e" stroke="white" stroke-width="2" /><text x="300.0" y="224.0" text-anchor="middle" dominant-baseline="middle" font-family="Arial, sans-serif" font-size="12" font-weight="bold" fill="white">४१.२%</text><path d="M 300 140 L 184.5809228192617 172.8395588086499 A 120 120 0 0 1 219.15652276241315 51.31892993352089 Z" fill="#2ca02c" stroke="white" stroke-width="2" /><text x="219.2066459734832" y="117.01230883394504" text-anchor="middle" dominant-baseline="middle" font-family="Arial, sans-serif" font-size="12" font-weight="bold" fill="white">१७.६%</text><path d="M 300 140 L 219.15652276241315 51.31892993352089 A 120 120 0 0 1 300.0 20.0 Z" fill="#ff9896" stroke="white" stroke-width="2" /><text x="269.65570004027916" y="61.672332730034114" text-anchor="middle" dominant-baseline="middle" font-family="Arial, sans-serif" font-size="12" font-weight="bold" fill="white">११.८%</text><rect x="450" y="94" width="12" height="12" fill="#1f77b4" stroke="black" stroke-width="1" /><text x="466" y="100" dominant-baseline="middle" font-family="Arial, sans-serif" font-size="11" fill="black">ब्राह्मण (५०००)</text><rect x="450" y="114" width="12" height="12" fill="#ff7f0e" stroke="black" stroke-width="1" /><text x="466" y="120" dominant-baseline="middle" font-family="Arial, sans-serif" font-size="11" fill="black">क्षेत्री (७०००)</text><rect x="450" y="134" width="12" height="12" fill="#2ca02c" stroke="black" stroke-width="1" /><text x="466" y="140" dominant-baseline="middle" font-family="Arial, sans-serif" font-size="11" fill="black">मगर (३०००)</text><rect x="450" y="154" width="12" height="12" fill="#ff9896" stroke="black" stroke-width="1" /><text x="466" y="160" dominant-baseline="middle" font-family="Arial, sans-serif" font-size="11" fill="black">दलित (२०००)</text></svg>