<svg width="600" height="300" xmlns="http://www.w3.org/2000/svg"><path d="M 300 140 L 300.0 20.0 A 120 120 0 1 1 215.1471862576143 224.8528137423857 Z" fill="#1f77b4" stroke="white" stroke-width="2" /><text x="377.6058807309481" y="172.14540831866753" text-anchor="middle" dominant-baseline="middle" font-family="Arial, sans-serif" font-size="12" font-weight="bold" fill="white">६२.५%</text><path d="M 300 140 L 215.1471862576143 224.8528137423857 A 120 120 0 0 1 196.07695154586736 79.99999999999999 Z" fill="#7f7f7f" stroke="white" stroke-width="2" /><text x="216.71863164459992" y="150.96420014648433" text-anchor="middle" dominant-baseline="middle" font-family="Arial, sans-serif" font-size="12" font-weight="bold" fill="white">२०.८%</text><path d="M 300 140 L 196.07695154586736 79.99999999999999 A 120 120 0 0 1 268.9417145876975 24.088900845311798 Z" fill="#bcbd22" stroke="white" stroke-width="2" /><text x="248.86403996326743" y="73.35831941553627" text-anchor="middle" dominant-baseline="middle" font-family="Arial, sans-serif" font-size="12" font-weight="bold" fill="white">१२.५%</text><path d="M 300 140 L 268.9417145876975 24.088900845311798 A 120 120 0 0 1 300.0 20.0 Z" fill="#f7b6d3" stroke="white" stroke-width="2" /><text x="289.03579985351564" y="56.718631644599924" text-anchor="middle" dominant-baseline="middle" font-family="Arial, sans-serif" font-size="12" font-weight="bold" fill="white">४.२%</text><rect x="450" y="94" width="12" height="12" fill="#1f77b4" stroke="black" stroke-width="1" /><text x="466" y="100" dominant-baseline="middle" font-family="Arial, sans-serif" font-size="11" fill="black">नेपाली (१५०००)</text><rect x="450" y="114" width="12" height="12" fill="#7f7f7f" stroke="black" stroke-width="1" /><text x="466" y="120" dominant-baseline="middle" font-family="Arial, sans-serif" font-size="11" fill="black">मैथिली (५०००)</text><rect x="450" y="134" width="12" height="12" fill="#bcbd22" stroke="black" stroke-width="1" /><text x="466" y="140" dominant-baseline="middle" font-family="Arial, sans-serif" font-size="11" fill="black">भोजपुरी (३०००)</text><rect x="450" y="154" width="12" height="12" fill="#f7b6d3" stroke="black" stroke-width="1" /><text x="466" y="160" dominant-baseline="middle" font-family="Arial, sans-serif" font-size="11" fill="black">अंग्रेजी (१०००)</text></svg>