<svg width="600" height="300" xmlns="http://www.w3.org/2000/svg"><path d="M 300 140 L 300.0 20.0 A 120 120 0 1 1 280.3799434017455 21.614809291527976 Z" fill="#FF6B35" stroke="white" stroke-width="2" /><text x="306.89023897778026" y="223.71693142267623" text-anchor="middle" dominant-baseline="middle" font-family="Arial, sans-serif" font-size="12" font-weight="bold" fill="white">९७.४%</text><path d="M 300 140 L 280.3799434017455 21.614809291527976 A 120 120 0 0 1 294.9987232585115 20.104265167792363 Z" fill="#F7931E" stroke="white" stroke-width="2" /><text x="291.3663307119962" y="56.444869968233675" text-anchor="middle" dominant-baseline="middle" font-family="Arial, sans-serif" font-size="12" font-weight="bold" fill="white">२.०%</text><path d="M 300 140 L 294.9987232585115 20.104265167792363 A 120 120 0 0 1 298.3233168116248 20.011714182234357 Z" fill="#2ca02c" stroke="white" stroke-width="2" /><text x="297.66248956634416" y="56.03252984058321" text-anchor="middle" dominant-baseline="middle" font-family="Arial, sans-serif" font-size="12" font-weight="bold" fill="white">०.४%</text><path d="M 300 140 L 298.3233168116248 20.011714182234357 A 120 120 0 0 1 300.00000000000006 20.0 Z" fill="#8c564b" stroke="white" stroke-width="2" /><text x="299.41314656200205" y="56.00205000690606" text-anchor="middle" dominant-baseline="middle" font-family="Arial, sans-serif" font-size="12" font-weight="bold" fill="white">०.२%</text><rect x="450" y="94" width="12" height="12" fill="#FF6B35" stroke="black" stroke-width="1" /><text x="466" y="100" dominant-baseline="middle" font-family="Arial, sans-serif" font-size="11" fill="black">हिन्दू (२६७१३)</text><rect x="450" y="114" width="12" height="12" fill="#F7931E" stroke="black" stroke-width="1" /><text x="466" y="120" dominant-baseline="middle" font-family="Arial, sans-serif" font-size="11" fill="black">बौद्ध (५३५)</text><rect x="450" y="134" width="12" height="12" fill="#2ca02c" stroke="black" stroke-width="1" /><text x="466" y="140" dominant-baseline="middle" font-family="Arial, sans-serif" font-size="11" fill="black">क्रिश्चियन (१२१)</text><rect x="450" y="154" width="12" height="12" fill="#8c564b" stroke="black" stroke-width="1" /><text x="466" y="160" dominant-baseline="middle" font-family="Arial, sans-serif" font-size="11" fill="black">प्रकृति (६१)</text></svg>