<svg width="600" height="450" xmlns="http://www.w3.org/2000/svg"><path d="M 300 215 L 300.0 95.0 A 120 120 0 1 1 229.46576972490323 312.08203932499373 Z" fill="#FF6B35" stroke="white" stroke-width="2" /><text x="379.8887473687929" y="240.95742752749558" text-anchor="middle" dominant-baseline="middle" font-family="Arial, sans-serif" font-size="12" font-weight="bold" fill="white">६०.०%</text><path d="M 300 215 L 229.46576972490323 312.08203932499373 A 120 120 0 0 1 202.9179606750063 144.46576972490323 Z" fill="#F7931E" stroke="white" stroke-width="2" /><text x="217.03417939000843" y="228.1404950633794" text-anchor="middle" dominant-baseline="middle" font-family="Arial, sans-serif" font-size="12" font-weight="bold" fill="white">२५.०%</text><path d="M 300 215 L 202.9179606750063 144.46576972490323 A 120 120 0 0 1 262.91796067500627 100.87321804458158 Z" fill="#2ca02c" stroke="white" stroke-width="2" /><text x="250.62603880743225" y="147.04257247250442" text-anchor="middle" dominant-baseline="middle" font-family="Arial, sans-serif" font-size="12" font-weight="bold" fill="white">१०.०%</text><path d="M 300 215 L 262.91796067500627 100.87321804458158 A 120 120 0 0 1 300.0 95.0 Z" fill="#1f77b4" stroke="white" stroke-width="2" /><text x="286.85950493662057" y="132.03417939000843" text-anchor="middle" dominant-baseline="middle" font-family="Arial, sans-serif" font-size="12" font-weight="bold" fill="white">५.०%</text><rect x="450" y="169" width="12" height="12" fill="#FF6B35" stroke="black" stroke-width="1" /><text x="466" y="175" dominant-baseline="middle" font-family="Arial, sans-serif" font-size="11" fill="black">हिन्दू (१२००)</text><rect x="450" y="189" width="12" height="12" fill="#F7931E" stroke="black" stroke-width="1" /><text x="466" y="195" dominant-baseline="middle" font-family="Arial, sans-serif" font-size="11" fill="black">बौद्ध (५००)</text><rect x="450" y="209" width="12" height="12" fill="#2ca02c" stroke="black" stroke-width="1" /><text x="466" y="215" dominant-baseline="middle" font-family="Arial, sans-serif" font-size="11" fill="black">क्रिस्चियन (२००)</text><rect x="450" y="229" width="12" height="12" fill="#1f77b4" stroke="black" stroke-width="1" /><text x="466" y="235" dominant-baseline="middle" font-family="Arial, sans-serif" font-size="11" fill="black">किरात (१००)</text></svg>