<svg width="950" height="450" xmlns="http://www.w3.org/2000/svg"><style>
        .nepali-text {
            font-family: 'Noto Sans Devanagari', 'Mangal', 'Kalimati', 'Devanagari MT', Arial, sans-serif;
            font-size: 12px;
        }
        .nepali-title {
            font-family: 'Noto Sans Devanagari', 'Mangal', 'Kalimati', 'Devanagari MT', Arial, sans-serif;
            font-size: 16px;
            font-weight: bold;
        }
        </style><text x="475" y="25" text-anchor="middle" class="nepali-title" fill="#333333">मातृभाषाको आधारमा जनसंख्या वितरण</text><path d="M 475 180 L 475.0 55.0 A 125 125 0 1 1 386.6116523516816 268.3883476483185 Z" fill="#1f77b4" stroke="#ffffff" stroke-width="2" /><path d="M 475 180 L 386.6116523516816 268.3883476483185 A 125 125 0 0 1 366.74682452694515 117.49999999999999 Z" fill="#7f7f7f" stroke="#ffffff" stroke-width="2" /><path d="M 475 180 L 366.74682452694515 117.49999999999999 A 125 125 0 0 1 442.6476193621849 59.259271713866454 Z" fill="#bcbd22" stroke="#ffffff" stroke-width="2" /><path d="M 475 180 L 442.6476193621849 59.259271713866454 A 125 125 0 0 1 475.0 55.0 Z" fill="#f7b6d3" stroke="#ffffff" stroke-width="2" /><rect x="50" y="335" width="15" height="15" fill="#1f77b4" stroke="#333" stroke-width="1" /><text x="70" y="347" class="nepali-text" fill="#333333">नेपाली (१५०००, ६२.५%)</text><rect x="333" y="335" width="15" height="15" fill="#7f7f7f" stroke="#333" stroke-width="1" /><text x="353" y="347" class="nepali-text" fill="#333333">मैथिली (५०००, २०.८%)</text><rect x="616" y="335" width="15" height="15" fill="#bcbd22" stroke="#333" stroke-width="1" /><text x="636" y="347" class="nepali-text" fill="#333333">भोजपुरी (३०००, १२.५%)</text><rect x="50" y="360" width="15" height="15" fill="#f7b6d3" stroke="#333" stroke-width="1" /><text x="70" y="372" class="nepali-text" fill="#333333">अंग्रेजी (१०००, ४.२%)</text></svg>