<svg width="900" height="450" xmlns="http://www.w3.org/2000/svg"><style>
        .nepali-text {
            font-family: 'Noto Sans Devanagari', 'Mangal', 'Kalimati', 'Devanagari MT', Arial, sans-serif;
            font-size: 12px;
        }
        .nepali-title {
            font-family: 'Noto Sans Devanagari', 'Mangal', 'Kalimati', 'Devanagari MT', Arial, sans-serif;
            font-size: 16px;
            font-weight: bold;
        }
        </style><text x="450" y="25" text-anchor="middle" class="nepali-title" fill="#333333">धर्म अनुसार जनसंख्या वितरण</text><path d="M 450 180 L 450.0 50.0 A 130 130 0 1 1 428.7449386852243 51.74937673248863 Z" fill="#FF6B35" stroke="#ffffff" stroke-width="2" /><path d="M 450 180 L 428.7449386852243 51.74937673248863 A 130 130 0 0 1 444.5819501967208 50.11295393177505 Z" fill="#F7931E" stroke="#ffffff" stroke-width="2" /><path d="M 450 180 L 444.5819501967208 50.11295393177505 A 130 130 0 0 1 448.1835932125935 50.012690364087234 Z" fill="#2ca02c" stroke="#ffffff" stroke-width="2" /><path d="M 450 180 L 448.1835932125935 50.012690364087234 A 130 130 0 0 1 450.0000000000001 50.0 Z" fill="#8c564b" stroke="#ffffff" stroke-width="2" /><rect x="50" y="340" width="15" height="15" fill="#FF6B35" stroke="#333" stroke-width="1" /><text x="70" y="352" class="nepali-text" fill="#333333">हिन्दू (२६७१३, ९७.४%)</text><rect x="316" y="340" width="15" height="15" fill="#F7931E" stroke="#333" stroke-width="1" /><text x="336" y="352" class="nepali-text" fill="#333333">बौद्ध (५३५, २.०%)</text><rect x="582" y="340" width="15" height="15" fill="#2ca02c" stroke="#333" stroke-width="1" /><text x="602" y="352" class="nepali-text" fill="#333333">क्रिश्चियन (१२१, ०.४%)</text><rect x="50" y="365" width="15" height="15" fill="#8c564b" stroke="#333" stroke-width="1" /><text x="70" y="377" class="nepali-text" fill="#333333">प्रकृति (६१, ०.२%)</text></svg>